<svg xmlns="http://www.w3.org/2000/svg" xmlns:xlink="http://www.w3.org/1999/xlink">
  <defs>
    <symbol
      id="arrow-down"
      viewBox="0 0 14 8"
      fill="none"
      stroke="currentColor">
      <path stroke-width="1.5" d="m1 1 6 6 6-6" />
    </symbol>
    <symbol
      id="moon"
      viewBox="0 0 22 22"
      fill="none"
      stroke="currentColor"
      stroke-linecap="round"
      stroke-linejoin="round"
      stroke-width="1.5">
      <path
        d="M1 10.449a10.544 10.544 0 0 0 19.993 4.686C11.544 15.135 6.858 10.448 6.858 1A10.545 10.545 0 0 0 1 10.449Z" />
    </symbol>
    <symbol
      id="new-window"
      viewBox="0 0 14 14"
      fill="none"
      stroke="currentColor"
      stroke-linecap="round"
      stroke-linejoin="round"
      stroke-width="1.5">
      <path
        d="M6.09 3.545H2.456A1.455 1.455 0 0 0 1 5v6.545A1.455 1.455 0 0 0 2.455 13H9a1.455 1.455 0 0 0 1.455-1.455V7.91m-5.091.727 7.272-7.272m0 0H9m3.636 0V5" />
    </symbol>
    <symbol viewBox="0 0 100 100" id="play" fill="currentColor">
      <polygon points="0,0 43.3,25 86.6,50 86.6,50 86.6,50 43.3,75 0,100" />
    </symbol>
    <symbol viewBox="0 0 100 100" id="stop" fill="currentColor">
      <polygon points="0,0 50,0 100,0 100,50 100,100 50,100 0,100" />
    </symbol>
    <symbol
      id="search"
      viewBox="0 0 18 18"
      fill="none"
      stroke="currentColor"
      stroke-linecap="round"
      stroke-linejoin="round"
      stroke-width="1.5">
      <path
        d="m12.663 12.663 3.887 3.887M1 7.664a6.665 6.665 0 1 0 13.33 0 6.665 6.665 0 0 0-13.33 0Z" />
    </symbol>
    <symbol
      id="logo"
      viewBox="0 0 34 38"
      fill="none"
      fill-rule="evenodd"
      stroke="currentColor"
      stroke-linecap="round"
      stroke-width="1.5">
      <g>
        <path d="M1 33V5a4 4 0 0 1 4-4h26.8A1.2 1.2 0 0 1 33 2.2v26.228M5 29h28M5 37h28" />
        <path stroke-linejoin="round" d="M5 37a4 4 0 1 1 0-8" />
        <path d="M11 9h12" />
      </g>
    </symbol>
    <symbol
      id="sun"
      viewBox="0 0 24 24"
      fill="none"
      stroke="currentColor"
      stroke-width="2"
      stroke-linecap="round"
      stroke-linejoin="round">
      <circle cx="12" cy="12" r="5"></circle>
      <line x1="12" y1="1" x2="12" y2="3"></line>
      <line x1="12" y1="21" x2="12" y2="23"></line>
      <line x1="4.22" y1="4.22" x2="5.64" y2="5.64"></line>
      <line x1="18.36" y1="18.36" x2="19.78" y2="19.78"></line>
      <line x1="1" y1="12" x2="3" y2="12"></line>
      <line x1="21" y1="12" x2="23" y2="12"></line>
      <line x1="4.22" y1="19.78" x2="5.64" y2="18.36"></line>
      <line x1="18.36" y1="5.64" x2="19.78" y2="4.22"></line>
    </symbol>
  </defs>
</svg>